<mxfile host="app.diagrams.net" modified="2024-06-28T16:22:43.050Z" agent="Mozilla/5.0 (Windows NT 10.0; Win64; x64) AppleWebKit/537.36 (KHTML, like Gecko) Chrome/126.0.0.0 Safari/537.36 Edg/126.0.0.0" etag="QE3yh0iCQ1vgIvqSF3uq" version="24.6.4" type="device">
  <diagram id="C5RBs43oDa-KdzZeNtuy" name="Page-1">
    <mxGraphModel dx="1426" dy="751" grid="1" gridSize="10" guides="1" tooltips="1" connect="1" arrows="1" fold="1" page="1" pageScale="1" pageWidth="3300" pageHeight="4681" math="0" shadow="0">
      <root>
        <mxCell id="WIyWlLk6GJQsqaUBKTNV-0" />
        <mxCell id="WIyWlLk6GJQsqaUBKTNV-1" parent="WIyWlLk6GJQsqaUBKTNV-0" />
        <mxCell id="WIyWlLk6GJQsqaUBKTNV-4" value="Yes" style="rounded=0;html=1;jettySize=auto;orthogonalLoop=1;fontSize=11;endArrow=block;endFill=0;endSize=8;strokeWidth=1;shadow=0;labelBackgroundColor=none;edgeStyle=orthogonalEdgeStyle;" parent="WIyWlLk6GJQsqaUBKTNV-1" edge="1">
          <mxGeometry y="20" relative="1" as="geometry">
            <mxPoint as="offset" />
            <mxPoint x="220.00000000000023" y="250" as="sourcePoint" />
          </mxGeometry>
        </mxCell>
        <mxCell id="WIyWlLk6GJQsqaUBKTNV-8" value="No" style="rounded=0;html=1;jettySize=auto;orthogonalLoop=1;fontSize=11;endArrow=block;endFill=0;endSize=8;strokeWidth=1;shadow=0;labelBackgroundColor=none;edgeStyle=orthogonalEdgeStyle;" parent="WIyWlLk6GJQsqaUBKTNV-1" edge="1">
          <mxGeometry x="0.3333" y="20" relative="1" as="geometry">
            <mxPoint as="offset" />
            <mxPoint x="220.00000000000023" y="370" as="sourcePoint" />
          </mxGeometry>
        </mxCell>
        <mxCell id="WIyWlLk6GJQsqaUBKTNV-9" value="Yes" style="edgeStyle=orthogonalEdgeStyle;rounded=0;html=1;jettySize=auto;orthogonalLoop=1;fontSize=11;endArrow=block;endFill=0;endSize=8;strokeWidth=1;shadow=0;labelBackgroundColor=none;" parent="WIyWlLk6GJQsqaUBKTNV-1" edge="1">
          <mxGeometry y="10" relative="1" as="geometry">
            <mxPoint as="offset" />
            <mxPoint x="270.0000000000002" y="330" as="sourcePoint" />
          </mxGeometry>
        </mxCell>
        <mxCell id="0" value="&lt;h1&gt;Funzionamento&lt;/h1&gt;&lt;p&gt;Ora come ora, Le variabili: query, isMassive, reWorkOldIds, reWorkNulls, count e removeOldPermissions sono indipendenti.&lt;/p&gt;" style="text;html=1;strokeColor=none;fillColor=none;spacing=5;spacingTop=-20;whiteSpace=wrap;overflow=hidden;rounded=0;" parent="WIyWlLk6GJQsqaUBKTNV-1" vertex="1">
          <mxGeometry x="10" y="10" width="770" height="120" as="geometry" />
        </mxCell>
        <mxCell id="3" value="" style="edgeStyle=orthogonalEdgeStyle;rounded=0;orthogonalLoop=1;jettySize=auto;html=1;" parent="WIyWlLk6GJQsqaUBKTNV-1" source="1" target="2" edge="1">
          <mxGeometry relative="1" as="geometry" />
        </mxCell>
        <mxCell id="1" value="FNConnector" style="rounded=0;whiteSpace=wrap;html=1;" parent="WIyWlLk6GJQsqaUBKTNV-1" vertex="1">
          <mxGeometry x="20" y="90" width="120" height="60" as="geometry" />
        </mxCell>
        <mxCell id="2JPR-GX0ekPzSGuHzvnp-21" style="edgeStyle=orthogonalEdgeStyle;rounded=0;orthogonalLoop=1;jettySize=auto;html=1;exitX=1;exitY=0.5;exitDx=0;exitDy=0;" parent="WIyWlLk6GJQsqaUBKTNV-1" source="2" target="2JPR-GX0ekPzSGuHzvnp-18" edge="1">
          <mxGeometry relative="1" as="geometry" />
        </mxCell>
        <mxCell id="2" value="SecurityFixer" style="whiteSpace=wrap;html=1;rounded=0;" parent="WIyWlLk6GJQsqaUBKTNV-1" vertex="1">
          <mxGeometry x="220" y="90" width="120" height="60" as="geometry" />
        </mxCell>
        <mxCell id="2JPR-GX0ekPzSGuHzvnp-34" style="edgeStyle=orthogonalEdgeStyle;rounded=0;orthogonalLoop=1;jettySize=auto;html=1;" parent="WIyWlLk6GJQsqaUBKTNV-1" source="4" edge="1">
          <mxGeometry relative="1" as="geometry">
            <mxPoint x="380" y="280" as="targetPoint" />
          </mxGeometry>
        </mxCell>
        <mxCell id="4" value="query.isEmpty?" style="whiteSpace=wrap;html=1;rounded=0;" parent="WIyWlLk6GJQsqaUBKTNV-1" vertex="1">
          <mxGeometry x="220" y="250" width="120" height="60" as="geometry" />
        </mxCell>
        <mxCell id="6" value="" style="endArrow=classic;html=1;rounded=0;entryX=0.5;entryY=1;entryDx=0;entryDy=0;exitX=0;exitY=0.5;exitDx=0;exitDy=0;" parent="WIyWlLk6GJQsqaUBKTNV-1" source="4" target="1" edge="1">
          <mxGeometry width="50" height="50" relative="1" as="geometry">
            <mxPoint x="130" y="290" as="sourcePoint" />
            <mxPoint x="180" y="240" as="targetPoint" />
            <Array as="points">
              <mxPoint x="80" y="280" />
            </Array>
          </mxGeometry>
        </mxCell>
        <mxCell id="2JPR-GX0ekPzSGuHzvnp-41" style="edgeStyle=orthogonalEdgeStyle;rounded=0;orthogonalLoop=1;jettySize=auto;html=1;entryX=0;entryY=0.5;entryDx=0;entryDy=0;" parent="WIyWlLk6GJQsqaUBKTNV-1" source="2JPR-GX0ekPzSGuHzvnp-11" target="2JPR-GX0ekPzSGuHzvnp-38" edge="1">
          <mxGeometry relative="1" as="geometry" />
        </mxCell>
        <mxCell id="2JPR-GX0ekPzSGuHzvnp-11" value="isMassive?" style="rounded=0;whiteSpace=wrap;html=1;" parent="WIyWlLk6GJQsqaUBKTNV-1" vertex="1">
          <mxGeometry x="220" y="400" width="120" height="60" as="geometry" />
        </mxCell>
        <mxCell id="2JPR-GX0ekPzSGuHzvnp-12" value="" style="endArrow=classic;html=1;rounded=0;exitX=0;exitY=0.5;exitDx=0;exitDy=0;entryX=0.5;entryY=1;entryDx=0;entryDy=0;" parent="WIyWlLk6GJQsqaUBKTNV-1" source="2JPR-GX0ekPzSGuHzvnp-11" target="1" edge="1">
          <mxGeometry width="50" height="50" relative="1" as="geometry">
            <mxPoint x="390" y="490" as="sourcePoint" />
            <mxPoint x="79" y="160" as="targetPoint" />
            <Array as="points">
              <mxPoint x="80" y="430" />
            </Array>
          </mxGeometry>
        </mxCell>
        <mxCell id="2JPR-GX0ekPzSGuHzvnp-42" style="edgeStyle=orthogonalEdgeStyle;rounded=0;orthogonalLoop=1;jettySize=auto;html=1;entryX=0;entryY=0.5;entryDx=0;entryDy=0;" parent="WIyWlLk6GJQsqaUBKTNV-1" source="2JPR-GX0ekPzSGuHzvnp-15" target="2JPR-GX0ekPzSGuHzvnp-39" edge="1">
          <mxGeometry relative="1" as="geometry" />
        </mxCell>
        <mxCell id="2JPR-GX0ekPzSGuHzvnp-15" value="reWorkOldIds?" style="rounded=0;whiteSpace=wrap;html=1;" parent="WIyWlLk6GJQsqaUBKTNV-1" vertex="1">
          <mxGeometry x="220" y="540" width="120" height="60" as="geometry" />
        </mxCell>
        <mxCell id="2JPR-GX0ekPzSGuHzvnp-16" value="" style="endArrow=classic;html=1;rounded=0;exitX=0;exitY=0.5;exitDx=0;exitDy=0;entryX=0.5;entryY=1;entryDx=0;entryDy=0;" parent="WIyWlLk6GJQsqaUBKTNV-1" source="2JPR-GX0ekPzSGuHzvnp-15" target="1" edge="1">
          <mxGeometry width="50" height="50" relative="1" as="geometry">
            <mxPoint x="390" y="590" as="sourcePoint" />
            <mxPoint x="80" y="160" as="targetPoint" />
            <Array as="points">
              <mxPoint x="80" y="570" />
            </Array>
          </mxGeometry>
        </mxCell>
        <mxCell id="2JPR-GX0ekPzSGuHzvnp-19" style="edgeStyle=orthogonalEdgeStyle;rounded=0;orthogonalLoop=1;jettySize=auto;html=1;exitX=0;exitY=1;exitDx=0;exitDy=0;entryX=0.5;entryY=0;entryDx=0;entryDy=0;" parent="WIyWlLk6GJQsqaUBKTNV-1" source="2JPR-GX0ekPzSGuHzvnp-18" target="4" edge="1">
          <mxGeometry relative="1" as="geometry">
            <mxPoint x="280" y="200" as="targetPoint" />
            <Array as="points">
              <mxPoint x="580" y="200" />
              <mxPoint x="280" y="200" />
            </Array>
          </mxGeometry>
        </mxCell>
        <mxCell id="2JPR-GX0ekPzSGuHzvnp-22" style="edgeStyle=orthogonalEdgeStyle;rounded=0;orthogonalLoop=1;jettySize=auto;html=1;exitX=1;exitY=1;exitDx=0;exitDy=0;" parent="WIyWlLk6GJQsqaUBKTNV-1" source="2JPR-GX0ekPzSGuHzvnp-18" edge="1">
          <mxGeometry relative="1" as="geometry">
            <mxPoint x="690" y="250" as="targetPoint" />
          </mxGeometry>
        </mxCell>
        <mxCell id="2JPR-GX0ekPzSGuHzvnp-18" value="count?" style="rounded=0;whiteSpace=wrap;html=1;" parent="WIyWlLk6GJQsqaUBKTNV-1" vertex="1">
          <mxGeometry x="580" y="130" width="110" height="50" as="geometry" />
        </mxCell>
        <mxCell id="2JPR-GX0ekPzSGuHzvnp-20" value="False" style="text;html=1;align=center;verticalAlign=middle;resizable=0;points=[];autosize=1;strokeColor=none;fillColor=none;" parent="WIyWlLk6GJQsqaUBKTNV-1" vertex="1">
          <mxGeometry x="440" y="170" width="50" height="30" as="geometry" />
        </mxCell>
        <mxCell id="2JPR-GX0ekPzSGuHzvnp-23" value="Fa la count delle classi documentali elaborati, nulli e non elaborati" style="whiteSpace=wrap;html=1;" parent="WIyWlLk6GJQsqaUBKTNV-1" vertex="1">
          <mxGeometry x="630" y="250" width="120" height="60" as="geometry" />
        </mxCell>
        <mxCell id="2JPR-GX0ekPzSGuHzvnp-24" value="True" style="text;html=1;align=center;verticalAlign=middle;resizable=0;points=[];autosize=1;strokeColor=none;fillColor=none;" parent="WIyWlLk6GJQsqaUBKTNV-1" vertex="1">
          <mxGeometry x="685" y="188" width="50" height="30" as="geometry" />
        </mxCell>
        <mxCell id="2JPR-GX0ekPzSGuHzvnp-28" value="False" style="text;html=1;align=center;verticalAlign=middle;resizable=0;points=[];autosize=1;strokeColor=none;fillColor=none;" parent="WIyWlLk6GJQsqaUBKTNV-1" vertex="1">
          <mxGeometry x="80" y="250" width="50" height="30" as="geometry" />
        </mxCell>
        <mxCell id="2JPR-GX0ekPzSGuHzvnp-29" value="False" style="text;html=1;align=center;verticalAlign=middle;resizable=0;points=[];autosize=1;strokeColor=none;fillColor=none;" parent="WIyWlLk6GJQsqaUBKTNV-1" vertex="1">
          <mxGeometry x="80" y="400" width="50" height="30" as="geometry" />
        </mxCell>
        <mxCell id="2JPR-GX0ekPzSGuHzvnp-30" value="False" style="text;html=1;align=center;verticalAlign=middle;resizable=0;points=[];autosize=1;strokeColor=none;fillColor=none;" parent="WIyWlLk6GJQsqaUBKTNV-1" vertex="1">
          <mxGeometry x="80" y="540" width="50" height="30" as="geometry" />
        </mxCell>
        <mxCell id="2JPR-GX0ekPzSGuHzvnp-32" style="edgeStyle=orthogonalEdgeStyle;rounded=0;orthogonalLoop=1;jettySize=auto;html=1;" parent="WIyWlLk6GJQsqaUBKTNV-1" source="2JPR-GX0ekPzSGuHzvnp-31" edge="1">
          <mxGeometry relative="1" as="geometry">
            <mxPoint x="80.00000000000023" y="150" as="targetPoint" />
          </mxGeometry>
        </mxCell>
        <mxCell id="2JPR-GX0ekPzSGuHzvnp-43" style="edgeStyle=orthogonalEdgeStyle;rounded=0;orthogonalLoop=1;jettySize=auto;html=1;entryX=0;entryY=0.5;entryDx=0;entryDy=0;" parent="WIyWlLk6GJQsqaUBKTNV-1" source="2JPR-GX0ekPzSGuHzvnp-31" target="2JPR-GX0ekPzSGuHzvnp-40" edge="1">
          <mxGeometry relative="1" as="geometry" />
        </mxCell>
        <mxCell id="2JPR-GX0ekPzSGuHzvnp-31" value="reWorkNulls?" style="rounded=0;whiteSpace=wrap;html=1;" parent="WIyWlLk6GJQsqaUBKTNV-1" vertex="1">
          <mxGeometry x="220" y="670" width="120" height="60" as="geometry" />
        </mxCell>
        <mxCell id="2JPR-GX0ekPzSGuHzvnp-33" value="False" style="text;html=1;align=center;verticalAlign=middle;resizable=0;points=[];autosize=1;strokeColor=none;fillColor=none;" parent="WIyWlLk6GJQsqaUBKTNV-1" vertex="1">
          <mxGeometry x="80" y="670" width="50" height="30" as="geometry" />
        </mxCell>
        <mxCell id="2JPR-GX0ekPzSGuHzvnp-36" value="Lavorazione delle classi documentali in base alla query" style="whiteSpace=wrap;html=1;" parent="WIyWlLk6GJQsqaUBKTNV-1" vertex="1">
          <mxGeometry x="380" y="250" width="120" height="60" as="geometry" />
        </mxCell>
        <mxCell id="2JPR-GX0ekPzSGuHzvnp-37" value="True" style="text;html=1;align=center;verticalAlign=middle;resizable=0;points=[];autosize=1;strokeColor=none;fillColor=none;" parent="WIyWlLk6GJQsqaUBKTNV-1" vertex="1">
          <mxGeometry x="330" y="258" width="50" height="30" as="geometry" />
        </mxCell>
        <mxCell id="2JPR-GX0ekPzSGuHzvnp-38" value="Lavorazione delle classi documentali in base alla docClassList" style="whiteSpace=wrap;html=1;" parent="WIyWlLk6GJQsqaUBKTNV-1" vertex="1">
          <mxGeometry x="380" y="400" width="120" height="60" as="geometry" />
        </mxCell>
        <mxCell id="2JPR-GX0ekPzSGuHzvnp-39" value="Lavorazione delle classi documentali con security_proxy vecchia" style="whiteSpace=wrap;html=1;" parent="WIyWlLk6GJQsqaUBKTNV-1" vertex="1">
          <mxGeometry x="380" y="540" width="120" height="60" as="geometry" />
        </mxCell>
        <mxCell id="2JPR-GX0ekPzSGuHzvnp-40" value="Lavorazione delle classi documentali con security_proxy a null" style="whiteSpace=wrap;html=1;" parent="WIyWlLk6GJQsqaUBKTNV-1" vertex="1">
          <mxGeometry x="380" y="670" width="120" height="60" as="geometry" />
        </mxCell>
        <mxCell id="2JPR-GX0ekPzSGuHzvnp-44" value="True" style="text;html=1;align=center;verticalAlign=middle;resizable=0;points=[];autosize=1;strokeColor=none;fillColor=none;" parent="WIyWlLk6GJQsqaUBKTNV-1" vertex="1">
          <mxGeometry x="330" y="410" width="50" height="30" as="geometry" />
        </mxCell>
        <mxCell id="2JPR-GX0ekPzSGuHzvnp-45" value="True" style="text;html=1;align=center;verticalAlign=middle;resizable=0;points=[];autosize=1;strokeColor=none;fillColor=none;" parent="WIyWlLk6GJQsqaUBKTNV-1" vertex="1">
          <mxGeometry x="330" y="550" width="50" height="30" as="geometry" />
        </mxCell>
        <mxCell id="2JPR-GX0ekPzSGuHzvnp-46" value="True" style="text;html=1;align=center;verticalAlign=middle;resizable=0;points=[];autosize=1;strokeColor=none;fillColor=none;" parent="WIyWlLk6GJQsqaUBKTNV-1" vertex="1">
          <mxGeometry x="330" y="680" width="50" height="30" as="geometry" />
        </mxCell>
        <mxCell id="7" value="" style="endArrow=classic;html=1;rounded=0;exitX=0.5;exitY=1;exitDx=0;exitDy=0;entryX=0.25;entryY=1;entryDx=0;entryDy=0;" parent="WIyWlLk6GJQsqaUBKTNV-1" source="2JPR-GX0ekPzSGuHzvnp-23" target="1" edge="1">
          <mxGeometry width="50" height="50" relative="1" as="geometry">
            <mxPoint x="700" y="330" as="sourcePoint" />
            <mxPoint x="40" y="800" as="targetPoint" />
            <Array as="points">
              <mxPoint x="690" y="1000" />
              <mxPoint x="50" y="1000" />
            </Array>
          </mxGeometry>
        </mxCell>
        <mxCell id="6mCcBnBt0rLraN_YXRSJ-7" value="" style="endArrow=classic;html=1;rounded=0;exitX=1;exitY=0.5;exitDx=0;exitDy=0;" parent="WIyWlLk6GJQsqaUBKTNV-1" source="2JPR-GX0ekPzSGuHzvnp-36" edge="1">
          <mxGeometry width="50" height="50" relative="1" as="geometry">
            <mxPoint x="770" y="490" as="sourcePoint" />
            <mxPoint x="1090" y="430" as="targetPoint" />
          </mxGeometry>
        </mxCell>
        <mxCell id="6mCcBnBt0rLraN_YXRSJ-8" value="" style="endArrow=classic;html=1;rounded=0;exitX=1;exitY=0.5;exitDx=0;exitDy=0;entryX=0;entryY=0.5;entryDx=0;entryDy=0;" parent="WIyWlLk6GJQsqaUBKTNV-1" source="2JPR-GX0ekPzSGuHzvnp-38" target="6mCcBnBt0rLraN_YXRSJ-11" edge="1">
          <mxGeometry width="50" height="50" relative="1" as="geometry">
            <mxPoint x="770" y="490" as="sourcePoint" />
            <mxPoint x="820" y="440" as="targetPoint" />
          </mxGeometry>
        </mxCell>
        <mxCell id="6mCcBnBt0rLraN_YXRSJ-9" value="" style="endArrow=classic;html=1;rounded=0;exitX=1;exitY=0.5;exitDx=0;exitDy=0;" parent="WIyWlLk6GJQsqaUBKTNV-1" source="2JPR-GX0ekPzSGuHzvnp-39" edge="1">
          <mxGeometry width="50" height="50" relative="1" as="geometry">
            <mxPoint x="770" y="490" as="sourcePoint" />
            <mxPoint x="1090" y="430" as="targetPoint" />
          </mxGeometry>
        </mxCell>
        <mxCell id="6mCcBnBt0rLraN_YXRSJ-10" value="" style="endArrow=classic;html=1;rounded=0;exitX=1;exitY=0.5;exitDx=0;exitDy=0;entryX=0;entryY=0.5;entryDx=0;entryDy=0;" parent="WIyWlLk6GJQsqaUBKTNV-1" source="2JPR-GX0ekPzSGuHzvnp-40" target="6mCcBnBt0rLraN_YXRSJ-11" edge="1">
          <mxGeometry width="50" height="50" relative="1" as="geometry">
            <mxPoint x="770" y="490" as="sourcePoint" />
            <mxPoint x="820" y="440" as="targetPoint" />
          </mxGeometry>
        </mxCell>
        <mxCell id="6mCcBnBt0rLraN_YXRSJ-12" style="edgeStyle=orthogonalEdgeStyle;rounded=0;orthogonalLoop=1;jettySize=auto;html=1;exitX=1;exitY=1;exitDx=0;exitDy=0;" parent="WIyWlLk6GJQsqaUBKTNV-1" source="6mCcBnBt0rLraN_YXRSJ-11" edge="1">
          <mxGeometry relative="1" as="geometry">
            <mxPoint x="1360" y="550" as="targetPoint" />
          </mxGeometry>
        </mxCell>
        <mxCell id="6mCcBnBt0rLraN_YXRSJ-13" style="edgeStyle=orthogonalEdgeStyle;rounded=0;orthogonalLoop=1;jettySize=auto;html=1;exitX=0;exitY=1;exitDx=0;exitDy=0;" parent="WIyWlLk6GJQsqaUBKTNV-1" source="6mCcBnBt0rLraN_YXRSJ-11" target="6mCcBnBt0rLraN_YXRSJ-14" edge="1">
          <mxGeometry relative="1" as="geometry">
            <mxPoint x="970" y="560" as="targetPoint" />
          </mxGeometry>
        </mxCell>
        <mxCell id="6mCcBnBt0rLraN_YXRSJ-11" value="Ricerca x BU" style="rounded=1;whiteSpace=wrap;html=1;" parent="WIyWlLk6GJQsqaUBKTNV-1" vertex="1">
          <mxGeometry x="1090" y="400" width="120" height="60" as="geometry" />
        </mxCell>
        <mxCell id="6mCcBnBt0rLraN_YXRSJ-14" value="Se non e` presente la BU: non si puo` determinare a quale security_proxy associare il documento" style="rounded=1;whiteSpace=wrap;html=1;" parent="WIyWlLk6GJQsqaUBKTNV-1" vertex="1">
          <mxGeometry x="910" y="550" width="120" height="120" as="geometry" />
        </mxCell>
        <mxCell id="6mCcBnBt0rLraN_YXRSJ-16" style="edgeStyle=orthogonalEdgeStyle;rounded=0;orthogonalLoop=1;jettySize=auto;html=1;exitX=0;exitY=1;exitDx=0;exitDy=0;entryX=0.5;entryY=0;entryDx=0;entryDy=0;" parent="WIyWlLk6GJQsqaUBKTNV-1" source="6mCcBnBt0rLraN_YXRSJ-15" target="6mCcBnBt0rLraN_YXRSJ-18" edge="1">
          <mxGeometry relative="1" as="geometry">
            <mxPoint x="1040" y="800" as="targetPoint" />
          </mxGeometry>
        </mxCell>
        <mxCell id="6mCcBnBt0rLraN_YXRSJ-20" style="edgeStyle=orthogonalEdgeStyle;rounded=0;orthogonalLoop=1;jettySize=auto;html=1;exitX=1;exitY=1;exitDx=0;exitDy=0;" parent="WIyWlLk6GJQsqaUBKTNV-1" source="6mCcBnBt0rLraN_YXRSJ-15" target="6mCcBnBt0rLraN_YXRSJ-21" edge="1">
          <mxGeometry relative="1" as="geometry">
            <mxPoint x="1670" y="800" as="targetPoint" />
          </mxGeometry>
        </mxCell>
        <mxCell id="6mCcBnBt0rLraN_YXRSJ-32" style="edgeStyle=orthogonalEdgeStyle;rounded=0;orthogonalLoop=1;jettySize=auto;html=1;exitX=0.5;exitY=1;exitDx=0;exitDy=0;" parent="WIyWlLk6GJQsqaUBKTNV-1" source="6mCcBnBt0rLraN_YXRSJ-15" edge="1">
          <mxGeometry relative="1" as="geometry">
            <mxPoint x="1355" y="880" as="targetPoint" />
          </mxGeometry>
        </mxCell>
        <mxCell id="6mCcBnBt0rLraN_YXRSJ-15" value="Se c&#39;e` la BU allora, gestione varia in base al tipo doc: documento o allegato o contratto" style="rounded=1;whiteSpace=wrap;html=1;" parent="WIyWlLk6GJQsqaUBKTNV-1" vertex="1">
          <mxGeometry x="1290" y="550" width="130" height="140" as="geometry" />
        </mxCell>
        <mxCell id="6mCcBnBt0rLraN_YXRSJ-23" style="edgeStyle=orthogonalEdgeStyle;rounded=0;orthogonalLoop=1;jettySize=auto;html=1;exitX=0;exitY=1;exitDx=0;exitDy=0;" parent="WIyWlLk6GJQsqaUBKTNV-1" source="6mCcBnBt0rLraN_YXRSJ-18" edge="1">
          <mxGeometry relative="1" as="geometry">
            <mxPoint x="600" y="1260" as="targetPoint" />
          </mxGeometry>
        </mxCell>
        <mxCell id="6mCcBnBt0rLraN_YXRSJ-26" style="edgeStyle=orthogonalEdgeStyle;rounded=0;orthogonalLoop=1;jettySize=auto;html=1;exitX=0.5;exitY=1;exitDx=0;exitDy=0;" parent="WIyWlLk6GJQsqaUBKTNV-1" source="6mCcBnBt0rLraN_YXRSJ-18" edge="1">
          <mxGeometry relative="1" as="geometry">
            <mxPoint x="890" y="1200" as="targetPoint" />
          </mxGeometry>
        </mxCell>
        <mxCell id="6mCcBnBt0rLraN_YXRSJ-29" style="edgeStyle=orthogonalEdgeStyle;rounded=0;orthogonalLoop=1;jettySize=auto;html=1;exitX=1;exitY=1;exitDx=0;exitDy=0;" parent="WIyWlLk6GJQsqaUBKTNV-1" source="6mCcBnBt0rLraN_YXRSJ-18" edge="1">
          <mxGeometry relative="1" as="geometry">
            <mxPoint x="1170" y="1270" as="targetPoint" />
          </mxGeometry>
        </mxCell>
        <mxCell id="6mCcBnBt0rLraN_YXRSJ-18" value="Se vi e` solo un valore della BU_SOCIETA, allora in base alla mappatura presente in config.json -&amp;gt; si determina quale security_proxy associare.Se vi sono molti valori, allora se sono tutti netco - allora netco, altrimenti servco altrimenti ancora - non si capisce e quindi non si fa nulla." style="rounded=1;whiteSpace=wrap;html=1;" parent="WIyWlLk6GJQsqaUBKTNV-1" vertex="1">
          <mxGeometry x="780" y="960" width="220" height="170" as="geometry" />
        </mxCell>
        <mxCell id="6mCcBnBt0rLraN_YXRSJ-19" value="Documento" style="text;html=1;align=center;verticalAlign=middle;resizable=0;points=[];autosize=1;strokeColor=none;fillColor=none;" parent="WIyWlLk6GJQsqaUBKTNV-1" vertex="1">
          <mxGeometry x="990" y="790" width="80" height="30" as="geometry" />
        </mxCell>
        <mxCell id="6mCcBnBt0rLraN_YXRSJ-40" style="edgeStyle=orthogonalEdgeStyle;rounded=0;orthogonalLoop=1;jettySize=auto;html=1;exitX=0;exitY=1;exitDx=0;exitDy=0;" parent="WIyWlLk6GJQsqaUBKTNV-1" source="6mCcBnBt0rLraN_YXRSJ-21" edge="1">
          <mxGeometry relative="1" as="geometry">
            <mxPoint x="600" y="1320" as="targetPoint" />
            <Array as="points">
              <mxPoint x="1610" y="1500" />
              <mxPoint x="600" y="1500" />
            </Array>
          </mxGeometry>
        </mxCell>
        <mxCell id="6mCcBnBt0rLraN_YXRSJ-42" style="edgeStyle=orthogonalEdgeStyle;rounded=0;orthogonalLoop=1;jettySize=auto;html=1;exitX=1;exitY=1;exitDx=0;exitDy=0;entryX=0.5;entryY=1;entryDx=0;entryDy=0;" parent="WIyWlLk6GJQsqaUBKTNV-1" source="6mCcBnBt0rLraN_YXRSJ-21" target="6mCcBnBt0rLraN_YXRSJ-30" edge="1">
          <mxGeometry relative="1" as="geometry">
            <Array as="points">
              <mxPoint x="1730" y="1580" />
              <mxPoint x="1170" y="1580" />
            </Array>
          </mxGeometry>
        </mxCell>
        <mxCell id="6mCcBnBt0rLraN_YXRSJ-21" value="La gestione prevede la scansione della variabile &quot;NOME_GRUPPO, se e` popolato allora non si fa nulla. Il resto della gestione e` identica." style="rounded=1;whiteSpace=wrap;html=1;" parent="WIyWlLk6GJQsqaUBKTNV-1" vertex="1">
          <mxGeometry x="1610" y="770" width="120" height="150" as="geometry" />
        </mxCell>
        <mxCell id="6mCcBnBt0rLraN_YXRSJ-22" value="Contratto" style="text;html=1;align=center;verticalAlign=middle;resizable=0;points=[];autosize=1;strokeColor=none;fillColor=none;" parent="WIyWlLk6GJQsqaUBKTNV-1" vertex="1">
          <mxGeometry x="1515" y="698" width="70" height="30" as="geometry" />
        </mxCell>
        <mxCell id="6mCcBnBt0rLraN_YXRSJ-24" value="Security_Proxy e` presente" style="text;html=1;align=center;verticalAlign=middle;resizable=0;points=[];autosize=1;strokeColor=none;fillColor=none;" parent="WIyWlLk6GJQsqaUBKTNV-1" vertex="1">
          <mxGeometry x="600" y="1160" width="170" height="30" as="geometry" />
        </mxCell>
        <mxCell id="6mCcBnBt0rLraN_YXRSJ-25" value="Il vecchio si sostituisce con quello nuovo" style="rounded=1;whiteSpace=wrap;html=1;" parent="WIyWlLk6GJQsqaUBKTNV-1" vertex="1">
          <mxGeometry x="540" y="1260" width="120" height="60" as="geometry" />
        </mxCell>
        <mxCell id="6mCcBnBt0rLraN_YXRSJ-27" value="Da capire come gestire" style="rounded=1;whiteSpace=wrap;html=1;" parent="WIyWlLk6GJQsqaUBKTNV-1" vertex="1">
          <mxGeometry x="830" y="1240" width="120" height="60" as="geometry" />
        </mxCell>
        <mxCell id="6mCcBnBt0rLraN_YXRSJ-28" value="Security_proxy e` null" style="text;html=1;align=center;verticalAlign=middle;resizable=0;points=[];autosize=1;strokeColor=none;fillColor=none;" parent="WIyWlLk6GJQsqaUBKTNV-1" vertex="1">
          <mxGeometry x="820" y="1210" width="140" height="30" as="geometry" />
        </mxCell>
        <mxCell id="6mCcBnBt0rLraN_YXRSJ-30" value="Lo si imposta la nuova security_proxy" style="rounded=1;whiteSpace=wrap;html=1;" parent="WIyWlLk6GJQsqaUBKTNV-1" vertex="1">
          <mxGeometry x="1110" y="1270" width="120" height="60" as="geometry" />
        </mxCell>
        <mxCell id="6mCcBnBt0rLraN_YXRSJ-31" value="Security_proxy e` assente ossia il codice" style="text;html=1;align=center;verticalAlign=middle;resizable=0;points=[];autosize=1;strokeColor=none;fillColor=none;" parent="WIyWlLk6GJQsqaUBKTNV-1" vertex="1">
          <mxGeometry x="950" y="1170" width="240" height="30" as="geometry" />
        </mxCell>
        <mxCell id="6mCcBnBt0rLraN_YXRSJ-33" value="Allegato" style="text;html=1;align=center;verticalAlign=middle;resizable=0;points=[];autosize=1;strokeColor=none;fillColor=none;" parent="WIyWlLk6GJQsqaUBKTNV-1" vertex="1">
          <mxGeometry x="1350" y="840" width="70" height="30" as="geometry" />
        </mxCell>
        <mxCell id="6mCcBnBt0rLraN_YXRSJ-39" style="edgeStyle=orthogonalEdgeStyle;rounded=0;orthogonalLoop=1;jettySize=auto;html=1;exitX=1;exitY=1;exitDx=0;exitDy=0;entryX=0.5;entryY=1;entryDx=0;entryDy=0;" parent="WIyWlLk6GJQsqaUBKTNV-1" source="6mCcBnBt0rLraN_YXRSJ-35" target="6mCcBnBt0rLraN_YXRSJ-30" edge="1">
          <mxGeometry relative="1" as="geometry">
            <mxPoint x="1415" y="1490" as="targetPoint" />
            <Array as="points">
              <mxPoint x="1415" y="1470" />
              <mxPoint x="1170" y="1470" />
            </Array>
          </mxGeometry>
        </mxCell>
        <mxCell id="6mCcBnBt0rLraN_YXRSJ-35" value="Lo stesso procedimento di documento, qualora dovesse capitare il figlio dell&#39;allegato, allora si recupera il suo padre ed in base ai dati di padre si assegna la security_proxy" style="rounded=1;whiteSpace=wrap;html=1;" parent="WIyWlLk6GJQsqaUBKTNV-1" vertex="1">
          <mxGeometry x="1295" y="880" width="120" height="240" as="geometry" />
        </mxCell>
        <mxCell id="6mCcBnBt0rLraN_YXRSJ-37" value="" style="endArrow=classic;html=1;rounded=0;exitX=0;exitY=1;exitDx=0;exitDy=0;entryX=0.5;entryY=1;entryDx=0;entryDy=0;" parent="WIyWlLk6GJQsqaUBKTNV-1" source="6mCcBnBt0rLraN_YXRSJ-35" target="6mCcBnBt0rLraN_YXRSJ-25" edge="1">
          <mxGeometry width="50" height="50" relative="1" as="geometry">
            <mxPoint x="1560" y="1140" as="sourcePoint" />
            <mxPoint x="1295" y="1360" as="targetPoint" />
            <Array as="points">
              <mxPoint x="1295" y="1410" />
              <mxPoint x="600" y="1410" />
            </Array>
          </mxGeometry>
        </mxCell>
        <mxCell id="6mCcBnBt0rLraN_YXRSJ-38" value="" style="endArrow=classic;html=1;rounded=0;exitX=0.5;exitY=1;exitDx=0;exitDy=0;entryX=0.5;entryY=1;entryDx=0;entryDy=0;" parent="WIyWlLk6GJQsqaUBKTNV-1" source="6mCcBnBt0rLraN_YXRSJ-35" target="6mCcBnBt0rLraN_YXRSJ-27" edge="1">
          <mxGeometry width="50" height="50" relative="1" as="geometry">
            <mxPoint x="1560" y="1140" as="sourcePoint" />
            <mxPoint x="880" y="1450" as="targetPoint" />
            <Array as="points">
              <mxPoint x="1355" y="1440" />
              <mxPoint x="890" y="1440" />
            </Array>
          </mxGeometry>
        </mxCell>
        <mxCell id="6mCcBnBt0rLraN_YXRSJ-41" style="edgeStyle=orthogonalEdgeStyle;rounded=0;orthogonalLoop=1;jettySize=auto;html=1;exitX=0.5;exitY=1;exitDx=0;exitDy=0;entryX=0.5;entryY=1;entryDx=0;entryDy=0;" parent="WIyWlLk6GJQsqaUBKTNV-1" source="6mCcBnBt0rLraN_YXRSJ-21" target="6mCcBnBt0rLraN_YXRSJ-27" edge="1">
          <mxGeometry relative="1" as="geometry">
            <mxPoint x="890" y="1310" as="targetPoint" />
            <Array as="points">
              <mxPoint x="1670" y="1540" />
              <mxPoint x="890" y="1540" />
            </Array>
          </mxGeometry>
        </mxCell>
        <mxCell id="dqf9GJJD2OoVoc2IY6Jt-8" style="edgeStyle=orthogonalEdgeStyle;rounded=0;orthogonalLoop=1;jettySize=auto;html=1;exitX=1;exitY=0.5;exitDx=0;exitDy=0;" edge="1" parent="WIyWlLk6GJQsqaUBKTNV-1" source="dqf9GJJD2OoVoc2IY6Jt-7">
          <mxGeometry relative="1" as="geometry">
            <mxPoint x="440" y="800" as="targetPoint" />
          </mxGeometry>
        </mxCell>
        <mxCell id="dqf9GJJD2OoVoc2IY6Jt-10" style="edgeStyle=orthogonalEdgeStyle;rounded=0;orthogonalLoop=1;jettySize=auto;html=1;exitX=0;exitY=0.5;exitDx=0;exitDy=0;entryX=0.508;entryY=1.117;entryDx=0;entryDy=0;entryPerimeter=0;" edge="1" parent="WIyWlLk6GJQsqaUBKTNV-1" source="dqf9GJJD2OoVoc2IY6Jt-7" target="1">
          <mxGeometry relative="1" as="geometry">
            <mxPoint x="80" y="800" as="targetPoint" />
          </mxGeometry>
        </mxCell>
        <mxCell id="dqf9GJJD2OoVoc2IY6Jt-7" value="isRemoveOldPermissions?" style="rounded=0;whiteSpace=wrap;html=1;" vertex="1" parent="WIyWlLk6GJQsqaUBKTNV-1">
          <mxGeometry x="200" y="770" width="160" height="60" as="geometry" />
        </mxCell>
        <mxCell id="dqf9GJJD2OoVoc2IY6Jt-9" value="True" style="text;html=1;align=center;verticalAlign=middle;resizable=0;points=[];autosize=1;strokeColor=none;fillColor=none;" vertex="1" parent="WIyWlLk6GJQsqaUBKTNV-1">
          <mxGeometry x="360" y="770" width="50" height="30" as="geometry" />
        </mxCell>
        <mxCell id="dqf9GJJD2OoVoc2IY6Jt-11" value="False" style="text;html=1;align=center;verticalAlign=middle;resizable=0;points=[];autosize=1;strokeColor=none;fillColor=none;" vertex="1" parent="WIyWlLk6GJQsqaUBKTNV-1">
          <mxGeometry x="80" y="770" width="50" height="30" as="geometry" />
        </mxCell>
        <mxCell id="dqf9GJJD2OoVoc2IY6Jt-12" value="Rimozione dei vecchi permessi in base alla lista &quot;LDAPGroupToRemove&quot; storata in config.json" style="rounded=1;whiteSpace=wrap;html=1;" vertex="1" parent="WIyWlLk6GJQsqaUBKTNV-1">
          <mxGeometry x="440" y="770" width="160" height="200" as="geometry" />
        </mxCell>
      </root>
    </mxGraphModel>
  </diagram>
</mxfile>
